<?xml version="1.0" standalone="no"?>
<!DOCTYPE svg PUBLIC "-//W3C//DTD SVG 20010904//EN"
 "http://www.w3.org/TR/2001/REC-SVG-20010904/DTD/svg10.dtd">
<svg version="1.0" xmlns="http://www.w3.org/2000/svg"
 width="512.000000pt" height="512.000000pt" viewBox="0 0 512.000000 512.000000"
 preserveAspectRatio="xMidYMid meet">
<metadata>
Created by potrace 1.14, written by Peter Selinger 2001-2017
</metadata>
<g transform="translate(0.000000,512.000000) scale(0.100000,-0.100000)"
fill="#000000" stroke="none">
<path d="M3065 4954 c-238 -36 -415 -109 -593 -244 l-92 -70 -138 0 c-207 0
-303 -32 -414 -138 -167 -159 -194 -417 -63 -611 l32 -49 -36 -7 c-53 -10
-118 -51 -150 -96 -18 -24 -37 -73 -51 -129 l-22 -90 -129 0 -129 0 0 29 c0
73 -62 170 -133 207 -33 18 -338 65 -418 66 -68 0 -146 -36 -182 -84 -14 -18
-69 -121 -123 -228 l-99 -195 -3 -550 c-2 -382 0 -568 8 -610 23 -121 60 -175
247 -366 122 -124 180 -191 196 -225 22 -49 22 -52 27 -707 l5 -659 24 -19
c23 -19 69 -19 2013 -19 l1989 0 24 25 c14 13 25 30 25 37 0 7 18 272 41 588
l41 575 -28 53 c-70 135 -328 273 -772 413 -121 38 -327 95 -430 119 l-53 12
3 110 3 110 135 74 c105 58 147 87 191 134 105 112 149 238 149 431 l0 116 58
6 c102 9 183 62 230 152 22 41 26 63 27 125 0 82 -19 129 -75 193 -30 34 -30
35 -18 93 17 83 16 363 -1 449 -48 245 -161 457 -335 631 -170 170 -369 278
-608 330 -71 15 -312 27 -373 18z m761 -1415 l175 -141 -3 -351 c-3 -340 -4
-354 -26 -409 -41 -102 -90 -144 -308 -263 -107 -59 -216 -114 -241 -121 -25
-8 -86 -14 -135 -14 l-88 0 0 615 0 616 -25 24 -24 25 -344 0 -345 0 -20 80
-20 80 615 0 614 0 175 -141z m-2906 99 c168 -24 200 -39 200 -93 l0 -25 -160
0 -160 0 0 -80 0 -80 80 0 80 0 0 -80 0 -80 -80 0 -80 0 0 -80 0 -80 80 0 80
0 0 -80 0 -80 -80 0 -80 0 0 -80 0 -80 81 0 82 0 -6 -46 c-7 -64 -47 -104
-111 -111 l-46 -6 0 -78 0 -79 40 0 40 0 0 -135 c0 -131 1 -137 25 -160 24
-25 27 -25 192 -25 l168 0 190 -98 c105 -53 213 -115 240 -137 47 -39 125
-129 125 -145 0 -4 -22 -17 -49 -28 -150 -62 -298 -181 -321 -258 -10 -33 -6
-128 24 -540 20 -275 36 -512 36 -527 l0 -27 -275 0 -275 0 0 583 c0 635 -2
657 -58 761 -17 32 -93 119 -200 227 -121 124 -179 191 -195 225 -22 49 -22
53 -25 596 l-3 547 92 183 c50 101 98 191 107 201 20 22 53 22 242 -5z m3364
-317 c26 -27 31 -39 31 -81 0 -66 -40 -110 -109 -117 l-46 -6 0 123 0 123 46
-6 c34 -3 55 -13 78 -36z m-2214 -383 c48 -25 90 -89 90 -138 0 -49 -42 -113
-90 -137 -24 -13 -56 -23 -70 -23 -49 0 -113 42 -137 90 -13 24 -23 56 -23 70
0 14 10 46 23 70 24 48 88 90 137 90 14 0 46 -10 70 -22z m616 -225 c12 -27
10 -67 -11 -280 -14 -136 -28 -261 -31 -278 -4 -16 -28 -59 -55 -95 -54 -72
-79 -138 -79 -211 0 -31 45 -206 130 -504 72 -250 130 -460 130 -467 0 -7 -18
-9 -60 -5 l-59 7 -5 -33 c-11 -72 -17 -127 -13 -127 2 0 307 -34 677 -75 370
-41 677 -75 682 -75 4 0 8 -56 8 -125 l0 -125 -845 0 -845 0 -5 23 c-3 12 -48
265 -100 561 -66 370 -105 568 -126 630 -60 181 -166 340 -292 441 -39 31
-137 89 -234 138 -93 47 -176 93 -185 104 -24 26 -73 424 -57 456 29 55 52 48
68 -20 30 -129 116 -267 218 -349 259 -207 619 -188 853 46 94 94 154 206 178
334 14 73 18 83 31 73 8 -7 20 -26 27 -44z m834 -762 l0 -158 -37 -26 c-21
-14 -65 -39 -98 -54 -56 -26 -69 -28 -185 -28 -116 0 -129 2 -185 28 -33 15
-77 40 -97 54 l-38 26 0 143 0 144 258 0 c188 0 270 4 307 14 28 8 56 15 63
15 9 1 12 -37 12 -158z m-770 -256 c14 -15 56 -47 93 -72 216 -144 498 -143
716 1 95 63 121 96 121 151 0 43 0 44 28 35 15 -5 95 -27 177 -49 389 -104
795 -266 883 -352 l32 -31 -6 -82 c-3 -44 -20 -281 -38 -526 l-31 -445 -283
-3 -282 -2 0 320 0 320 -80 0 -80 0 0 -115 0 -116 -47 6 c-27 4 -260 30 -520
59 -260 29 -475 55 -479 59 -4 4 -70 226 -146 494 -147 515 -150 533 -111 591
l18 27 5 -122 c5 -112 7 -123 30 -148z m-822 -219 c18 -53 212 -1103 212
-1146 0 -7 -80 -9 -232 -8 l-233 3 -37 520 -38 520 48 45 c46 43 226 143 247
137 6 -2 20 -34 33 -71z"/>
<path d="M3532 3320 c-94 -57 -94 -183 0 -240 117 -71 259 71 188 188 -26 42
-76 72 -120 72 -19 0 -50 -9 -68 -20z m84 -111 c10 -17 -13 -36 -27 -22 -12
12 -4 33 11 33 5 0 12 -5 16 -11z"/>
</g>
</svg>
