<svg width="16" height="24" viewBox="0 0 16 24" fill="none" xmlns="http://www.w3.org/2000/svg">
<path d="M15.8776 15.04L11.9198 8.2C11.9198 8.16 11.9198 8.16 11.9198 8.12C11.9198 8.08 11.9606 8.08 12.0014 8.08H12.7358C13.0623 8.08 13.3887 7.88 13.5519 7.6C13.7151 7.32 13.6743 6.96 13.4703 6.68L8.65565 0.36C8.49245 0.12 8.24764 0 7.92122 0C7.59481 0 7.34999 0.12 7.18679 0.36L2.45376 6.68C2.24975 6.96 2.20895 7.32 2.37216 7.6C2.53537 7.88 2.82098 8.08 3.1882 8.08H4.37145C4.41226 8.08 4.41226 8.08 4.45306 8.12C4.45306 8.16 4.45306 8.16 4.45306 8.2L0.128054 15C-0.0351536 15.28 -0.0351532 15.6 0.0872526 15.88C0.25046 16.16 0.536073 16.32 0.862489 16.32H7.554V23.6C7.554 23.84 7.71721 24 7.96202 24C8.20683 24 8.37004 23.84 8.37004 23.6V16.36H15.1024C15.4288 16.36 15.7144 16.2 15.8776 15.92C16.0408 15.64 16.0408 15.32 15.8776 15.04ZM15.1432 15.52C15.1432 15.56 15.1024 15.56 15.0616 15.56H0.821687C0.780885 15.56 0.780885 15.56 0.740083 15.52C0.740083 15.48 0.740083 15.48 0.740083 15.44L5.06509 8.64C5.22829 8.36 5.22829 8.04 5.10589 7.76C4.94268 7.48 4.65707 7.32 4.33065 7.32H3.1474C3.10659 7.32 3.10659 7.32 3.06579 7.28C3.06579 7.24 3.06579 7.24 3.06579 7.2L7.88042 0.84C7.88042 0.8 7.92122 0.8 7.92122 0.8C7.92122 0.8 7.96202 0.8 8.00282 0.84L12.7766 7.16C12.7766 7.2 12.8175 7.2 12.7766 7.24C12.7766 7.28 12.7358 7.28 12.695 7.28H11.9606C11.6342 7.28 11.3486 7.44 11.1854 7.72C11.0222 8 11.0222 8.32 11.1854 8.6L15.1432 15.44C15.184 15.44 15.184 15.48 15.1432 15.52Z" fill="#3A5F56"/>
</svg>
